<svg width="250" height="176" viewBox="0 0 250 176" fill="none" xmlns="http://www.w3.org/2000/svg">
<g filter="url(#filter0_d_0_132)">
<rect x="40" y="10" width="170" height="96" rx="16" fill="white"/>
</g>
<path fill-rule="evenodd" clip-rule="evenodd" d="M141.2 51.31L139.2 47.93L135.65 49.62L133.65 46.23L130.1 47.93L128.11 44.53L124.56 46.23L122.56 42.84L119.01 44.54L117.02 41.14L113.46 42.84L105.93 67.36L115.08 70.16C115.425 69.0548 116.153 68.1094 117.134 67.4945C118.115 66.8797 119.284 66.636 120.428 66.8075C121.573 66.979 122.619 67.5543 123.377 68.4296C124.135 69.3049 124.554 70.4223 124.56 71.58V71.68C124.58 72.12 124.53 72.56 124.4 73L133.7 75.85L141.2 51.31Z" fill="#D61920"/>
<path fill-rule="evenodd" clip-rule="evenodd" d="M113.78 65.34C113.549 65.3017 113.339 65.1818 113.188 65.002C113.038 64.8222 112.957 64.5944 112.96 64.36V52.36C112.959 52.2283 112.984 52.0977 113.033 51.9757C113.083 51.8538 113.157 51.743 113.25 51.6499C113.343 51.5568 113.454 51.4832 113.576 51.4334C113.698 51.3836 113.828 51.3587 113.96 51.36H122.63C123.141 51.3587 123.647 51.458 124.119 51.6523C124.592 51.8466 125.021 52.132 125.384 52.4923C125.746 52.8526 126.033 53.2807 126.23 53.7521C126.427 54.2236 126.529 54.7292 126.53 55.24V64.36C126.53 64.5073 126.497 64.6527 126.434 64.7858C126.371 64.9189 126.279 65.0365 126.166 65.1301C126.052 65.2238 125.919 65.2911 125.776 65.3274C125.634 65.3637 125.485 65.368 125.34 65.34C125.11 65.2996 124.903 65.1788 124.754 64.9992C124.606 64.8196 124.526 64.593 124.53 64.36V55.25C124.53 54.7461 124.33 54.2628 123.973 53.9065C123.617 53.5502 123.134 53.35 122.63 53.35H120.74V64.35C120.741 64.484 120.715 64.6168 120.663 64.7405C120.611 64.8641 120.536 64.9762 120.44 65.07C120.326 65.1829 120.187 65.2665 120.033 65.3135C119.88 65.3605 119.718 65.3696 119.56 65.34C119.329 65.3017 119.119 65.1818 118.968 65.002C118.818 64.8222 118.737 64.5944 118.74 64.36V53.35H114.96V64.35C114.961 64.4971 114.929 64.6426 114.868 64.7761C114.806 64.9096 114.715 65.0279 114.603 65.1224C114.49 65.217 114.358 65.2855 114.216 65.3231C114.073 65.3607 113.925 65.3665 113.78 65.34ZM128.2 70.57C127.967 70.5315 127.756 70.4101 127.605 70.2282C127.454 70.0463 127.374 69.8161 127.38 69.58C127.381 69.3177 127.485 69.0663 127.67 68.88C127.855 68.6916 128.106 68.5838 128.37 68.58C129.22 68.58 129.95 68.04 130.19 67.23L131.22 63.8L127.85 52.53C127.81 52.404 127.795 52.2712 127.806 52.1394C127.818 52.0076 127.855 51.8794 127.917 51.7622C127.978 51.645 128.062 51.5411 128.164 51.4567C128.266 51.3722 128.383 51.3087 128.51 51.27C128.762 51.2002 129.031 51.2297 129.262 51.3525C129.492 51.4753 129.667 51.6821 129.75 51.93L132.25 60.33L134.79 51.93C134.91 51.47 135.42 51.16 135.94 51.26L136.01 51.27C136.55 51.44 136.85 52.01 136.69 52.54L133.22 64.1L132.12 67.8C131.873 68.5963 131.384 69.2955 130.72 69.8C130.045 70.3063 129.224 70.58 128.38 70.58C128.32 70.5823 128.259 70.579 128.2 70.57Z" fill="#FEFEFE"/>
<path fill-rule="evenodd" clip-rule="evenodd" d="M67.08 63.15H69.04C69.5625 63.15 70.0635 62.9424 70.433 62.573C70.8024 62.2036 71.01 61.7025 71.01 61.18V55.41C71.0113 55.1513 70.9616 54.8949 70.8639 54.6553C70.7661 54.4158 70.6221 54.1979 70.4401 54.0141C70.2581 53.8302 70.0416 53.684 69.8031 53.5838C69.5646 53.4836 69.3087 53.4313 69.05 53.43H67.08V63.13V63.15ZM65.85 65.21C65.6099 65.1694 65.3922 65.0443 65.2363 64.8572C65.0804 64.6702 64.9966 64.4335 65 64.19V46.27C64.9982 46.1329 65.0238 45.9968 65.0754 45.8697C65.1269 45.7427 65.2032 45.6272 65.3 45.53C65.417 45.4085 65.5621 45.3175 65.7226 45.2652C65.883 45.2129 66.0538 45.2008 66.22 45.23C66.72 45.33 67.08 45.75 67.08 46.26V51.36H69.04C69.5714 51.3587 70.0978 51.4622 70.5891 51.6647C71.0804 51.8671 71.5269 52.1645 71.9032 52.5397C72.2794 52.915 72.5778 53.3608 72.7815 53.8516C72.9852 54.3425 73.09 54.8686 73.09 55.4V61.17C73.0873 62.2407 72.6608 63.2667 71.9038 64.0238C71.1467 64.7809 70.1206 65.2074 69.05 65.21H66.04C65.9731 65.214 65.9061 65.2106 65.84 65.2L65.85 65.21Z" fill="#333545"/>
<path fill-rule="evenodd" clip-rule="evenodd" d="M80.14 53.35C80.0277 53.3304 79.914 53.3203 79.8 53.32C79.5406 53.3173 79.2832 53.3665 79.043 53.4645C78.8028 53.5626 78.5845 53.7076 78.4011 53.891C78.2176 54.0745 78.0726 54.2927 77.9745 54.533C77.8765 54.7732 77.8273 55.0306 77.83 55.29V61.3C77.8287 61.5591 77.8787 61.8158 77.9773 62.0555C78.0758 62.2951 78.2209 62.5128 78.4041 62.696C78.5873 62.8791 78.805 63.0242 79.0446 63.1227C79.2842 63.2213 79.5409 63.2713 79.8 63.27C80.3225 63.27 80.8236 63.0624 81.193 62.693C81.5625 62.3236 81.77 61.8225 81.77 61.3V55.3C81.77 54.33 81.08 53.52 80.14 53.35ZM79.09 65.3C78.1524 65.1351 77.3032 64.6443 76.6921 63.9143C76.0811 63.1843 75.7474 62.262 75.75 61.31V55.3C75.7483 54.7681 75.8526 54.2412 76.0569 53.7501C76.2613 53.259 76.5615 52.8137 76.94 52.44C77.3155 52.0646 77.7615 51.7671 78.2523 51.5646C78.7431 51.3621 79.2691 51.2586 79.8 51.26C80.8715 51.26 81.8991 51.6856 82.6567 52.4433C83.4144 53.2009 83.84 54.2285 83.84 55.3V61.31C83.84 62.39 83.42 63.41 82.65 64.18C82.2761 64.5546 81.8318 64.8517 81.3427 65.0542C80.8536 65.2567 80.3294 65.3606 79.8 65.36C79.562 65.361 79.3245 65.3409 79.09 65.3ZM90.89 53.36C90.7778 53.3403 90.664 53.3303 90.55 53.33C90.2906 53.3273 90.0332 53.3765 89.793 53.4745C89.5528 53.5726 89.3345 53.7176 89.1511 53.901C88.9676 54.0845 88.8226 54.3027 88.7245 54.543C88.6265 54.7832 88.5773 55.0406 88.58 55.3V61.31C88.5787 61.5691 88.6287 61.8258 88.7273 62.0654C88.8258 62.3051 88.9709 62.5228 89.1541 62.706C89.3373 62.8891 89.555 63.0342 89.7946 63.1327C90.0342 63.2313 90.2909 63.2813 90.55 63.28C90.8091 63.2813 91.0659 63.2313 91.3055 63.1327C91.5451 63.0342 91.7628 62.8891 91.946 62.706C92.1292 62.5228 92.2742 62.3051 92.3728 62.0654C92.4713 61.8258 92.5213 61.5691 92.52 61.31V55.3C92.52 54.34 91.83 53.53 90.89 53.36ZM89.84 65.3C88.9043 65.1329 88.0574 64.6413 87.4483 63.9115C86.8392 63.1817 86.507 62.2605 86.51 61.31V55.3C86.5116 54.7106 86.6418 54.1287 86.8915 53.5949C87.1412 53.0611 87.5043 52.5881 87.9557 52.2092C88.407 51.8302 88.9357 51.5543 89.5046 51.4007C90.0736 51.2471 90.6693 51.2196 91.25 51.32C92.1878 51.4825 93.038 51.9709 93.6509 52.699C94.2637 53.4272 94.5999 54.3483 94.6 55.3V61.31C94.6012 61.8442 94.4957 62.3733 94.2897 62.8661C94.0836 63.359 93.7811 63.8057 93.4 64.18C93.0261 64.5546 92.5818 64.8517 92.0927 65.0542C91.6036 65.2567 91.0794 65.3606 90.55 65.36C90.31 65.36 90.07 65.34 89.84 65.3ZM98.11 65.34C97.8699 65.2994 97.6522 65.1743 97.4963 64.9872C97.3404 64.8002 97.2566 64.5635 97.26 64.32V46.27C97.26 45.99 97.36 45.72 97.56 45.53C97.678 45.4135 97.8223 45.3273 97.9807 45.2785C98.1392 45.2298 98.307 45.22 98.47 45.25C98.97 45.33 99.34 45.76 99.34 46.27V56.95L104.12 51.59C104.36 51.33 104.72 51.21 105.08 51.27C105.262 51.3004 105.432 51.3788 105.573 51.4972C105.713 51.6156 105.82 51.7695 105.881 51.9431C105.943 52.1166 105.956 52.3034 105.921 52.484C105.885 52.6646 105.802 52.8324 105.68 52.97L102.07 57L105.8 63.83C105.867 63.9452 105.911 64.0727 105.928 64.2049C105.945 64.3371 105.936 64.4715 105.9 64.6C105.861 64.7325 105.796 64.8557 105.709 64.9623C105.621 65.0689 105.513 65.1565 105.39 65.22C105.178 65.3417 104.93 65.3843 104.69 65.34C104.541 65.3147 104.399 65.2568 104.274 65.1704C104.15 65.084 104.046 64.9712 103.97 64.84L100.61 58.66L99.33 60.07V64.32C99.33 64.5958 99.2204 64.8604 99.0254 65.0554C98.8304 65.2504 98.5658 65.36 98.29 65.36C98.22 65.36 98.16 65.36 98.09 65.34H98.11ZM143.92 65.33C143.358 65.2358 142.823 65.0173 142.356 64.6903C141.889 64.3633 141.501 63.9361 141.22 63.44C141.083 63.1969 141.047 62.9094 141.12 62.64C141.2 62.38 141.37 62.16 141.6 62.02C141.814 61.9033 142.061 61.8644 142.3 61.91C142.6 61.96 142.87 62.14 143.02 62.41C143.29 62.87 143.72 63.17 144.25 63.26C144.523 63.3075 144.804 63.2925 145.07 63.2163C145.337 63.1402 145.583 63.0047 145.79 62.82C146.19 62.45 146.39 61.92 146.34 61.4C146.329 61.1335 146.255 60.8733 146.125 60.6405C145.995 60.4077 145.811 60.2088 145.59 60.06L142.79 58.07C142.334 57.7497 141.954 57.3326 141.677 56.8487C141.401 56.3647 141.234 55.8257 141.19 55.27C141.154 54.7094 141.246 54.1479 141.459 53.6281C141.672 53.1083 142.001 52.6439 142.42 52.27C142.829 51.8897 143.318 51.6053 143.851 51.4375C144.383 51.2697 144.947 51.2228 145.5 51.3C146.68 51.5 147.64 52.18 148.19 53.14C148.323 53.3799 148.357 53.6618 148.286 53.9266C148.215 54.1913 148.045 54.4183 147.81 54.56C147.598 54.6817 147.35 54.7243 147.11 54.68C146.961 54.6547 146.819 54.5968 146.694 54.5104C146.57 54.424 146.466 54.3112 146.39 54.18C146.265 53.9678 146.094 53.7861 145.89 53.6478C145.686 53.5094 145.454 53.418 145.21 53.38C144.961 53.3349 144.705 53.3485 144.462 53.4196C144.219 53.4908 143.995 53.6176 143.81 53.79C143.629 53.9609 143.488 54.1695 143.396 54.4011C143.304 54.6326 143.265 54.8815 143.28 55.13C143.3 55.62 143.58 56.1 144 56.38L146.8 58.33C147.275 58.6628 147.668 59.0997 147.949 59.6075C148.23 60.1153 148.391 60.6805 148.42 61.26C148.466 61.8368 148.377 62.4164 148.16 62.9528C147.943 63.4893 147.604 63.9676 147.17 64.35C146.748 64.7425 146.243 65.0359 145.693 65.2089C145.143 65.3819 144.561 65.4301 143.99 65.35L143.91 65.33H143.92ZM151.95 65.36C151.71 65.3178 151.492 65.1925 151.335 65.0061C151.178 64.8196 151.091 64.5839 151.09 64.34V46.29C151.089 46.1531 151.115 46.0172 151.166 45.8904C151.218 45.7637 151.295 45.6485 151.392 45.5516C151.488 45.4548 151.604 45.3782 151.73 45.3264C151.857 45.2747 151.993 45.2487 152.13 45.25L152.33 45.26C152.83 45.36 153.17 45.77 153.17 46.29V51.39H155.14C155.671 51.3887 156.197 51.4923 156.688 51.6948C157.178 51.8974 157.624 52.1949 158 52.5703C158.375 52.9458 158.673 53.3916 158.875 53.8824C159.078 54.3731 159.181 54.8991 159.18 55.43V64.33C159.181 64.481 159.149 64.6303 159.085 64.7674C159.022 64.9045 158.929 65.026 158.814 65.1234C158.698 65.2207 158.563 65.2914 158.417 65.3306C158.271 65.3698 158.119 65.3764 157.97 65.35C157.47 65.26 157.11 64.83 157.11 64.32V55.42C157.11 55.1618 157.059 54.9061 156.96 54.6676C156.861 54.4292 156.715 54.2127 156.532 54.0305C156.349 53.8484 156.132 53.7042 155.893 53.6063C155.654 53.5084 155.398 53.4587 155.14 53.46H153.17V64.33C153.171 64.482 153.139 64.6324 153.075 64.7703C153.011 64.9083 152.917 65.0304 152.801 65.1279C152.684 65.2254 152.547 65.2959 152.4 65.3343C152.253 65.3727 152.099 65.378 151.95 65.35V65.36ZM166.23 53.37C165.947 53.3186 165.655 53.3302 165.377 53.4041C165.099 53.478 164.84 53.6124 164.619 53.7976C164.399 53.9828 164.222 54.2144 164.101 54.4758C163.98 54.7372 163.918 55.022 163.92 55.31V61.32C163.919 61.5782 163.968 61.8342 164.066 62.0731C164.164 62.3121 164.308 62.5293 164.491 62.7124C164.673 62.8955 164.889 63.0407 165.128 63.1399C165.366 63.239 165.622 63.29 165.88 63.29C166.4 63.29 166.9 63.09 167.27 62.72C167.455 62.5372 167.602 62.3191 167.702 62.0786C167.801 61.8382 167.852 61.5803 167.85 61.32V55.3C167.85 54.34 167.17 53.52 166.22 53.36L166.23 53.37ZM165.17 65.29C164.235 65.1251 163.388 64.6354 162.779 63.9073C162.17 63.1792 161.837 62.2594 161.84 61.31V55.3C161.84 54.7098 161.969 54.1268 162.218 53.5917C162.467 53.0566 162.83 52.5825 163.282 52.2024C163.733 51.8223 164.263 51.5455 164.832 51.3914C165.402 51.2372 165.998 51.2094 166.58 51.31C167.519 51.4728 168.371 51.9627 168.984 52.6929C169.597 53.4231 169.932 54.3466 169.93 55.3V61.31C169.93 61.8426 169.825 62.3699 169.619 62.861C169.412 63.3522 169.11 63.7972 168.73 64.17C168.271 64.6306 167.708 64.9731 167.088 65.1682C166.468 65.3632 165.81 65.405 165.17 65.29Z" fill="#333545"/>
<path fill-rule="evenodd" clip-rule="evenodd" d="M185.9 52.54C185.934 52.413 185.943 52.2804 185.926 52.15C185.909 52.0196 185.866 51.8939 185.8 51.78C185.724 51.6586 185.625 51.5536 185.509 51.4712C185.392 51.3887 185.26 51.3305 185.12 51.3C184.862 51.2513 184.595 51.3028 184.374 51.444C184.153 51.5852 183.994 51.8056 183.93 52.06C183.93 52.11 182.81 56.62 181.93 60.05L181.91 60.12L181.89 60.05L179.89 52.07C179.852 51.8752 179.754 51.6969 179.611 51.5592C179.468 51.4215 179.286 51.331 179.09 51.3C179.031 51.2883 178.97 51.2816 178.91 51.28C178.45 51.28 178.05 51.6 177.92 52.06C177.91 52.11 176.79 56.62 175.92 60.05L175.9 60.12L175.88 60.05C175.03 56.62 173.88 52.11 173.88 52.06C173.833 51.8686 173.731 51.695 173.588 51.5601C173.444 51.4252 173.264 51.3349 173.07 51.3C172.904 51.2706 172.732 51.283 172.572 51.3361C172.411 51.3893 172.267 51.4815 172.151 51.6044C172.035 51.7274 171.951 51.8773 171.907 52.0406C171.863 52.2039 171.861 52.3755 171.9 52.54L174.91 64.57C174.967 64.7905 175.095 64.9861 175.273 65.127C175.452 65.268 175.672 65.3463 175.9 65.35C176.39 65.35 176.78 65.03 176.88 64.57L178.88 56.58L178.91 56.51L178.93 56.58C179.81 60.05 180.93 64.58 180.93 64.58C180.99 64.7962 181.117 64.9876 181.293 65.1261C181.47 65.2647 181.686 65.3431 181.91 65.35C182.14 65.3572 182.366 65.2829 182.547 65.1403C182.728 64.9976 182.853 64.7957 182.9 64.57L185.9 52.54Z" fill="#333545"/>
<defs>
<filter id="filter0_d_0_132" x="0" y="0" width="250" height="176" filterUnits="userSpaceOnUse" color-interpolation-filters="sRGB">
<feFlood flood-opacity="0" result="BackgroundImageFix"/>
<feColorMatrix in="SourceAlpha" type="matrix" values="0 0 0 0 0 0 0 0 0 0 0 0 0 0 0 0 0 0 127 0" result="hardAlpha"/>
<feOffset dy="30"/>
<feGaussianBlur stdDeviation="20"/>
<feColorMatrix type="matrix" values="0 0 0 0 0.831373 0 0 0 0 0.85098 0 0 0 0 0.909804 0 0 0 0.2 0"/>
<feBlend mode="normal" in2="BackgroundImageFix" result="effect1_dropShadow_0_132"/>
<feBlend mode="normal" in="SourceGraphic" in2="effect1_dropShadow_0_132" result="shape"/>
</filter>
</defs>
</svg>
