<svg width="120" height="120" viewBox="0 0 120 120" fill="none" xmlns="http://www.w3.org/2000/svg">
<path d="M41.2502 75C54.7121 75 65.6252 64.0869 65.6252 50.625C65.6252 37.1631 54.7121 26.25 41.2502 26.25C27.7882 26.25 16.8752 37.1631 16.8752 50.625C16.8752 64.0869 27.7882 75 41.2502 75Z" stroke="black" stroke-width="2" stroke-miterlimit="10"/>
<path d="M72.8496 27.1581C76.2022 26.2135 79.7183 25.9983 83.1611 26.527C86.6038 27.0557 89.8933 28.316 92.808 30.2231C95.7226 32.1302 98.1948 34.6397 100.058 37.5827C101.921 40.5256 103.132 43.8337 103.609 47.284C104.086 50.7343 103.818 54.2467 102.823 57.5848C101.828 60.9228 100.13 64.0089 97.8417 66.6352C95.5538 69.2615 92.7296 71.367 89.5594 72.81C86.3892 74.2529 82.9466 74.9997 79.4635 75.0001" stroke="black" stroke-width="2" stroke-linecap="round" stroke-linejoin="round"/>
<path d="M7.49817 92.5297C11.305 87.1147 16.3589 82.6951 22.2331 79.6441C28.1073 76.5931 34.6293 75.0003 41.2486 75C47.8678 74.9997 54.39 76.5921 60.2644 79.6427C66.1388 82.6932 71.193 87.1124 75.0003 92.5271" stroke="black" stroke-width="2" stroke-linecap="round" stroke-linejoin="round"/>
<path d="M79.4635 75C86.0834 74.9952 92.6069 76.5856 98.4818 79.6366C104.357 82.6875 109.41 87.1092 113.214 92.5271" stroke="black" stroke-width="2" stroke-linecap="round" stroke-linejoin="round"/>
</svg>
